<svg width="800" height="900" viewBox="0 0 800 900" fill="none" xmlns="http://www.w3.org/2000/svg">
  <rect width="800" height="900" rx="48" fill="#0F172A"/>
  <circle cx="610" cy="230" r="140" fill="url(#paint0_linear)" fill-opacity="0.35"/>
  <circle cx="220" cy="710" r="180" fill="url(#paint1_linear)" fill-opacity="0.25"/>
  <rect x="188" y="166" width="424" height="568" rx="36" fill="#111827" stroke="#334155" stroke-width="2"/>
  <rect x="244" y="222" width="308" height="392" rx="24" fill="url(#paint2_linear)"/>
  <circle cx="398" cy="364" r="110" fill="#F4C7A1"/>
  <path d="M286 370C286 293 346 229 398 229C450 229 510 293 510 370V412H286V370Z" fill="#0F172A"/>
  <path d="M298 372C298 309 343 252 398 252C453 252 498 309 498 372V414H298V372Z" fill="#111827"/>
  <path d="M304 632C332 585 352 561 398 561C444 561 466 585 496 632V696H304V632Z" fill="#2563EB"/>
  <path d="M334 212C355 171 395 150 436 160C475 170 500 204 497 243L500 258C501 273 489 284 474 284H326C311 284 299 273 300 258L304 224C305 221 309 218 313 218C322 218 329 214 334 212Z" fill="#111827"/>
  <rect x="326" y="300" width="146" height="82" rx="24" fill="#F4C7A1"/>
  <path d="M336 590C356 537 382 508 398 508C414 508 440 537 460 590L470 620H326L336 590Z" fill="#0EA5E9"/>
  <defs>
    <linearGradient id="paint0_linear" x1="610" y1="90" x2="610" y2="370" gradientUnits="userSpaceOnUse">
      <stop stop-color="#2563EB"/>
      <stop offset="1" stop-color="#06B6D4"/>
    </linearGradient>
    <linearGradient id="paint1_linear" x1="220" y1="530" x2="220" y2="890" gradientUnits="userSpaceOnUse">
      <stop stop-color="#7C3AED"/>
      <stop offset="1" stop-color="#2563EB"/>
    </linearGradient>
    <linearGradient id="paint2_linear" x1="244" y1="222" x2="552" y2="614" gradientUnits="userSpaceOnUse">
      <stop stop-color="#1E293B"/>
      <stop offset="1" stop-color="#111827"/>
    </linearGradient>
  </defs>
</svg>
